<?xml version="1.0"?>
<svg width="1080" height="1080" xmlns="http://www.w3.org/2000/svg" xmlns:svg="http://www.w3.org/2000/svg" version="1.1" xml:space="preserve">
 <desc>Created with Fabric.js 5.2.4</desc>

 <g class="layer">
  <title>Layer 1</title>
  <g id="svg_36" transform="translate(-2.29134, 1081.03) scale(1) translate(2.29134, -1081.03) translate(-2.2939, -3.06278) matrix(1.78878, 0, 0, 1.78841, 2.891, -4.5841)">
   <g id="a7f6f9e2-2a61-4584-b685-4a0f421fc5c0" transform="translate(-238.333, -235) translate(842.222, 237.777) scale(0.716638, 0.717824) translate(-842.222, -237.777) translate(-1.21811, 1081.21) matrix(0.779114, 0, 0, 0.779116, 421.718, -421.714)">
    <rect fill="rgb(255,255,255)" fill-rule="nonzero" height="1080" id="svg_1" stroke-dashoffset="0" stroke-miterlimit="4" width="1080" x="-540" y="-540"/>
   </g>
   <g id="6d33b96e-c4b4-4783-8b8d-4c67cf0f033c" transform="translate(-238.333, -235) matrix(1, 0, 0, 1, 540, 540)"/>
   <g id="svg_2" transform="translate(-238.333, -235) matrix(0.59, 0, 0, 0.59, 539.73, 540.73)">
    <path d="m-512,-512l1024,0l0,1024l-1024,0l0,-1024z" fill="rgb(66,122,161)" fill-rule="nonzero" id="svg_3" stroke-dashoffset="0" stroke-miterlimit="4"/>
   </g>
   <g id="svg_4" transform="translate(-238.333, -235) matrix(1, 0, 0, 1, 401.99, 662.83)">
    <path d="m375.83,520.56c0.8,0 1.54,0.02 2.34,0.1c3.44,0.38 7.6,2.04 9.06,5.46c2.07,4.84 0.94,16.65 0.93,22.15l-0.08,56.55c0,8.78 -0.76,18.28 0.27,26.95c0.27,2.29 0.77,4.12 2.29,5.89c3.52,4.11 10.06,6.27 15.32,6.44c2.94,0.09 6.26,-0.2 8.88,-1.65c6.86,-3.81 24.51,-24.55 32.17,-31.39c3.18,-2.84 6.86,-4.76 11.23,-4.37c4.56,0.41 8.71,3.22 11.61,6.64c2.84,3.35 4.52,7.49 4.04,11.93c-0.32,2.99 -1.53,5.22 -3.36,7.55c-4.15,5.3 -9.6,9.96 -14.42,14.67l-25.54,24.79c-5.26,5.06 -11.64,12.48 -17.04,16.74c-7.84,6.18 -21.5,7.69 -31.11,6.52c-4.62,4.01 -8.91,8.32 -13.23,12.64q-13.02,13.4 -26.23,26.61c-4.83,4.82 -9.63,10.11 -15.02,14.31c-20.02,-14.67 -38.75,-34.76 -53.94,-54.31c4.97,-6.41 11.36,-12.05 17.1,-17.78c6.82,-6.81 13.46,-13.8 20.31,-20.58c4.04,-4 9.62,-8.32 12.71,-13.06c3.79,-5.85 6.42,-15.42 8.91,-22.09c8.04,-21.45 15.56,-43.22 23.07,-64.88c3.1,-8.95 5.7,-19.88 9.83,-28.28c2.18,-4.44 5.43,-6.04 9.9,-7.55z" fill="rgb(235,242,250)" fill-rule="nonzero" id="svg_5" stroke-dashoffset="0" stroke-miterlimit="4" transform=" translate(-373.99, -634.83)"/>
   </g>
   <g id="svg_6" transform="translate(-238.333, -235) matrix(1, 0, 0, 1, 531.26, 545.66)">
    <path d="m502,418.51c1.51,-0.05 3.74,-0.09 5,0.88c4.29,3.3 8.13,10.07 11.44,14.45l26.64,35.42c10.88,14.25 22.95,28.02 33.05,42.8c1.44,2.11 2.1,3.76 2.42,6.3c-0.86,2.23 -2.14,4.33 -3.56,6.25c-14.4,19.53 -30.17,38.27 -45.11,57.41c-5.94,7.6 -21.55,30.2 -27.67,34.82c-1.23,-0.19 -2.82,-0.34 -3.78,-1.2c-3.25,-2.88 -6.07,-7.46 -8.81,-10.87c-8.98,-11.18 -17.71,-22.51 -26.54,-33.8l-24.74,-31.51c-4.27,-5.42 -9.15,-10.84 -12.94,-16.59c-0.76,-1.15 -1.59,-3.25 -1.4,-4.65c0.19,-1.45 1.83,-3.6 2.7,-4.82c12.87,-18.02 26.95,-35.2 40.38,-52.81l20.09,-26.43c3.29,-4.31 6.43,-8.89 9.95,-13c0.85,-1 1.85,-1.85 2.88,-2.65z" fill="rgb(235,242,250)" fill-rule="nonzero" id="svg_7" stroke-dashoffset="0" stroke-miterlimit="4" transform=" translate(-503.26, -517.66)"/>
   </g>
   <g id="svg_8" transform="translate(-238.333, -235) matrix(1, 0, 0, 1, 689.43, 692.96)">
    <path d="m672.38,579.9c1.4,1.15 16.77,39.2 18.59,43.87c1.99,5.12 3.49,11.33 6.32,16.01c3.14,5.19 9.15,9.39 13.39,13.72c13.25,13.5 27.09,26.79 39.58,40.98c-3.68,5.72 -8.29,10.7 -12.82,15.76c-13.09,14.65 -27,27.79 -42.6,39.78c-11.59,-11.12 -22.74,-22.79 -33.91,-34.33c-7.55,-7.68 -14.14,-14.9 -23.66,-20.15c-6.31,0.23 -12.24,-0.33 -17.91,-3.34c-6.06,-3.22 -11.12,-9.84 -15.89,-14.66l-15.8,-15.74c-4.69,-4.77 -9.27,-9.84 -14.39,-14.15l-0.67,-0.56q12.73,-9.15 25.79,-17.83c4.78,5.15 9.33,13.43 15.99,16.17c3.92,1.62 8.56,0.8 12.27,-0.98c6.81,-3.27 20.17,-11.48 22.57,-18.81c2.43,-7.45 -5.25,-17.86 -8.49,-24.52c10.33,-7.39 21.47,-13.64 31.64,-21.22z" fill="rgb(235,242,250)" fill-rule="nonzero" id="svg_9" stroke-dashoffset="0" stroke-miterlimit="4" transform=" translate(-661.43, -664.96)"/>
   </g>
   <g id="svg_10" transform="translate(-238.333, -235) matrix(1, 0, 0, 1, 787.96, 634.64)">
    <path d="m770.79,532.71c14.06,-0.51 28.21,-0.11 42.28,0.19c-1.3,49.9 -23.12,108.16 -52.98,147.92l-5.56,-5.4l-20.83,-20.99c-14.28,-14.59 -25.27,-27.34 -26.68,-48.81c-1.18,-17.89 4.1,-35.97 16.01,-49.54c12.51,-14.26 28.98,-22.11 47.76,-23.37z" fill="rgb(235,242,250)" fill-rule="nonzero" id="svg_11" stroke-dashoffset="0" stroke-miterlimit="4" transform=" translate(-759.96, -606.64)"/>
   </g>
   <g id="svg_12" transform="translate(-238.333, -235) matrix(1, 0, 0, 1, 787.73, 445.37)">
    <path d="m758.96,342.89c5.97,6.14 10.82,15.81 15.09,23.25c22.2,38.77 36.12,80.54 38.82,125.3c-15.29,0.05 -36.49,1.42 -51.25,-1.17c-12.31,-3.3 -22.98,-7.64 -32.34,-16.56c-13.41,-12.78 -22.31,-29.58 -22.67,-48.33c-0.27,-14.54 4.38,-30.45 13.41,-41.97c3.96,-5.05 8.86,-9.55 13.3,-14.19l25.64,-26.33z" fill="rgb(235,242,250)" fill-rule="nonzero" id="svg_13" stroke-dashoffset="0" stroke-miterlimit="4" transform=" translate(-759.73, -417.37)"/>
   </g>
   <g id="svg_14" transform="translate(-238.333, -235) matrix(1, 0, 0, 1, 635.57, 787.37)">
    <path d="m596.44,706.7c3.3,-0.39 6.8,-0.27 10.1,0.04c26.6,2.49 38.31,15.61 55.7,33.44c6.37,6.54 13.15,12.94 18.95,19.99c-24.24,16.06 -47.59,28.17 -75.1,37.86c-23.68,7.55 -47.14,12.31 -71.93,14.25l-0.19,-25.51c-0.13,-21.3 1.03,-38.04 15.21,-55.34c12.02,-14.67 28.56,-22.81 47.26,-24.73z" fill="rgb(235,242,250)" fill-rule="nonzero" id="svg_15" stroke-dashoffset="0" stroke-miterlimit="4" transform=" translate(-607.57, -759.37)"/>
   </g>
   <g id="svg_16" transform="translate(-238.333, -235) matrix(1, 0, 0, 1, 442.91, 293.06)">
    <path d="m487.8,212.75c0.69,-0.05 0.28,-0.1 1.12,0.5c0.48,11.01 0.38,22.22 0.31,33.25c-0.12,19.92 -6.3,37.15 -20.69,51.26q-1.2,1.19 -2.45,2.32q-1.26,1.13 -2.57,2.2q-1.31,1.07 -2.67,2.07q-1.36,1 -2.77,1.92q-1.41,0.93 -2.87,1.79q-1.45,0.86 -2.95,1.64q-1.5,0.79 -3.03,1.5q-1.54,0.7 -3.1,1.33q-1.57,0.63 -3.17,1.18q-1.6,0.55 -3.22,1.02q-1.62,0.47 -3.27,0.86q-1.64,0.39 -3.3,0.69q-1.67,0.3 -3.34,0.52q-1.68,0.22 -3.36,0.36q-1.68,0.14 -3.37,0.19q-1.69,0.05 -3.38,0.01c-11.56,-0.23 -28.5,-4.26 -37.93,-11.06c-5.01,-3.62 -9.29,-8.86 -13.54,-13.33c-9.11,-9.56 -18.52,-18.83 -27.73,-28.31c12.96,-8.38 26.13,-16.51 39.98,-23.33q6.3,-3.03 12.72,-5.76q6.43,-2.73 12.97,-5.16q6.55,-2.42 13.2,-4.54q6.66,-2.11 13.41,-3.91q6.74,-1.8 13.57,-3.27q6.82,-1.48 13.71,-2.63q6.88,-1.15 13.82,-1.98q6.93,-0.83 13.9,-1.33z" fill="rgb(235,242,250)" fill-rule="nonzero" id="svg_17" stroke-dashoffset="0" stroke-miterlimit="4" transform=" translate(-414.91, -265.06)"/>
   </g>
   <g id="svg_18" transform="translate(-238.333, -235) matrix(1, 0, 0, 1, 710.58, 365.7)">
    <path d="m693.53,273.03c4.62,2.97 8.97,7.01 13.15,10.59c16.37,14.04 31.59,29.22 44.3,46.67c-14.97,14.59 -29.36,29.78 -44.08,44.63c-6.57,6.63 -13.1,14.56 -20.76,19.9c-4.67,3.26 -9.92,5.11 -15.38,6.54c-12.43,2.44 -24.43,0.58 -35.18,-6.32c-10.31,-6.63 -17.74,-16.48 -20.29,-28.53c-3.07,-14.5 0.45,-28.94 8.41,-41.22c6.03,-0.6 12.65,-0.87 18.18,-3.58c9.23,-4.53 42.71,-39.31 51.65,-48.68z" fill="rgb(235,242,250)" fill-rule="nonzero" id="svg_19" stroke-dashoffset="0" stroke-miterlimit="4" transform=" translate(-682.58, -337.7)"/>
   </g>
   <g id="svg_20" transform="translate(-238.333, -235) matrix(1, 0, 0, 1, 443.73, 787.73)">
    <path d="m412.43,707.18c3.2,-0.4 6.65,-0.4 9.87,-0.33c18.89,0.42 35.75,8.16 48.75,21.79c16.47,17.27 18.39,35.18 18.36,57.93q0.02,13.04 -0.19,26.08c-19.81,-2.46 -39.17,-5.32 -58.43,-10.76c-5.91,-1.36 -11.75,-3.66 -17.44,-5.7c-25.59,-9.16 -48.68,-21.37 -71.3,-36.38l27.86,-28.01c4.96,-5.02 10.25,-11.55 16.11,-15.44c7.77,-5.16 17.26,-7.91 26.41,-9.18z" fill="rgb(235,242,250)" fill-rule="nonzero" id="svg_21" stroke-dashoffset="0" stroke-miterlimit="4" transform=" translate(-415.73, -759.73)"/>
   </g>
   <g id="svg_22" transform="translate(-238.333, -235) matrix(1, 0, 0, 1, 292.22, 635.09)">
    <path d="m211.95,533.58q5.83,-0.09 11.67,-0.08c28.98,-0.09 50.87,-3.06 73.23,19.37q1.17,1.17 2.29,2.4q1.11,1.23 2.17,2.52q1.05,1.28 2.04,2.62q0.98,1.33 1.9,2.71q0.92,1.38 1.77,2.81q0.85,1.43 1.63,2.89q0.78,1.47 1.48,2.97q0.71,1.5 1.34,3.04q0.63,1.54 1.18,3.1q0.55,1.57 1.03,3.16q0.47,1.59 0.87,3.2q0.39,1.61 0.71,3.24q0.31,1.63 0.55,3.27q0.23,1.65 0.38,3.3q0.15,1.65 0.22,3.31q0.07,1.66 0.06,3.32c-0.12,24.26 -9.86,37.57 -26.29,53.92q-13.14,12.93 -25.92,26.21c-31.68,-45.06 -48.04,-92.46 -52.31,-147.28z" fill="rgb(235,242,250)" fill-rule="nonzero" id="svg_23" stroke-dashoffset="0" stroke-miterlimit="4" transform=" translate(-264.22, -607.09)"/>
   </g>
   <g id="svg_24" transform="translate(-238.333, -235) matrix(1, 0, 0, 1, 291.65, 444.63)">
    <path d="m263.54,342.49c6.94,6.1 13.15,13.39 19.45,20.15c14.23,15.27 26.32,25.67 31.05,47.13c3.97,18.02 1.38,35.37 -8.7,50.92c-9.79,15.1 -23.93,24.85 -41.46,28.62c-17.1,2.33 -35.14,1.19 -52.39,1.15c1.22,-9.4 1.79,-18.83 3.38,-28.19c7.45,-43.87 24.6,-82.58 48.67,-119.78z" fill="rgb(235,242,250)" fill-rule="nonzero" id="svg_25" stroke-dashoffset="0" stroke-miterlimit="4" transform=" translate(-263.65, -416.63)"/>
   </g>
   <g id="svg_26" transform="translate(-238.333, -235) matrix(1, 0, 0, 1, 636.39, 292.73)">
    <path d="m534.63,212.37c54.02,5.77 103.47,20.42 147.98,52.64c-7.66,5.66 -18.65,18.02 -26.12,25.32l-9.89,9.96c-11.21,11.27 -28.08,16.84 -43.84,16.8c-18.65,-0.04 -35.91,-7.66 -48.94,-20.95c-23.72,-24.19 -19.45,-52.98 -19.19,-83.77z" fill="rgb(235,242,250)" fill-rule="nonzero" id="svg_27" stroke-dashoffset="0" stroke-miterlimit="4" transform=" translate(-608.39, -264.73)"/>
   </g>
   <g id="svg_28" transform="translate(-238.333, -235) matrix(1, 0, 0, 1, 369.5, 365.95)">
    <path d="m328.63,273.87c2.76,1.12 6.62,6.21 8.85,8.45c7.28,7.31 33.47,35.19 40.75,38.6c5.8,2.72 12.1,3.21 18.4,3.72c1.95,1.32 3.43,2.72 4.87,4.59c6.9,8.89 9.43,21.79 8.05,32.79c-1.53,12.26 -8.41,23.53 -18.15,31.03c-10.48,8.08 -22.93,10.08 -35.82,8.46q-2.49,-0.42 -4.92,-1.13q-2.43,-0.7 -4.77,-1.68q-2.33,-0.97 -4.54,-2.21q-2.21,-1.23 -4.27,-2.71c-6.7,-4.78 -12.27,-11.42 -18.03,-17.27l-27.88,-28.34c-5.93,-6.07 -11.71,-12.52 -18.09,-18.13c15.86,-21.16 35.44,-39.16 55.55,-56.17z" fill="rgb(235,242,250)" fill-rule="nonzero" id="svg_29" stroke-dashoffset="0" stroke-miterlimit="4" transform=" translate(-341.5, -337.95)"/>
   </g>
   <g id="svg_30" transform="translate(-238.333, -235) matrix(1, 0, 0, 1, 642.53, 581.88)">
    <path d="m632.78,467.94l1.07,0.35q16.23,29.87 31.89,60.05c5.27,10.07 11.17,19.92 15.9,30.25c-15.53,10.57 -31.63,20.34 -47.32,30.7c-25.15,16.61 -50.07,33.74 -75.56,49.82c-0.8,0.31 -1.78,0.92 -2.63,0.66c-3.28,-0.97 -6.89,-8.06 -8.71,-10.87c11.65,-6.8 22.85,-14.52 34.26,-21.74l59.11,-36.63c7.88,-4.83 14.14,-9.42 16.36,-19.02c1.09,-4.72 1.03,-9.55 -0.34,-14.21c-2.24,-7.66 -7.36,-14.88 -11.26,-21.79q-11.97,-21.58 -24.93,-42.59c3.81,-1.99 8.16,-3.39 12.16,-4.98z" fill="rgb(235,242,250)" fill-rule="nonzero" id="svg_31" stroke-dashoffset="0" stroke-miterlimit="4" transform=" translate(-614.53, -553.88)"/>
   </g>
   <g id="svg_32" transform="translate(-238.333, -235) matrix(1, 0, 0, 1, 620.1, 560.27)">
    <path d="m591.49,447c0.12,0.11 0.25,0.22 0.35,0.35c2.99,3.9 5.76,10.73 8.28,15.23l23.37,41.64c6.12,10.71 15.74,23.69 20.54,34.28c1.32,2.93 1.99,5.59 1.25,8.79c-0.9,3.84 -3.45,6.75 -6.43,9.19c-3.85,3.15 -8.56,5.52 -12.8,8.12q-14.18,8.72 -28.53,17.14c-17.96,10.69 -35.42,22.19 -53.44,32.83c-1.79,1.04 -3.65,1.99 -5.47,2.98c8.01,-8.38 17.02,-15.75 25.78,-23.32c9.47,-8.16 18.81,-16.47 28.46,-24.42c9.82,-8.09 20.57,-16.11 29.11,-25.58c2.49,-2.76 4.33,-5.65 5.33,-9.27q0.2,-0.69 0.33,-1.4q0.13,-0.71 0.2,-1.43q0.07,-0.72 0.07,-1.44q0.01,-0.72 -0.04,-1.44q-0.06,-0.72 -0.17,-1.43q-0.12,-0.72 -0.29,-1.42q-0.18,-0.7 -0.42,-1.38q-0.23,-0.68 -0.53,-1.34c-2.81,-6.5 -8.16,-12.31 -12.12,-18.18c-11.65,-17.28 -24.06,-34.41 -34.52,-52.44q5.82,-3.07 11.69,-6.06z" fill="rgb(235,242,250)" fill-rule="nonzero" id="svg_33" stroke-dashoffset="0" stroke-miterlimit="4" transform=" translate(-592.1, -532.27)"/>
   </g>
   <g id="svg_34" transform="translate(-238.333, -235) matrix(1, 0, 0, 1, 603.27, 546.79)">
    <path d="m553.92,437.42c3.19,3.05 17.62,27.63 21.27,33.24q12.11,18.66 24.6,37.08c4.8,7.16 12.02,14.81 14.66,22.99c-0.24,2.51 -1.96,4.72 -3.61,6.53c-5.91,6.49 -13.67,12.09 -20.39,17.75l-47.91,39.73c-2.06,1.95 -4.2,3.68 -6.45,5.41c3.01,-5.84 7.65,-11.09 11.6,-16.32l28.15,-36.58c5.38,-6.96 11.68,-14.08 15.92,-21.78c1.26,-2.3 2.14,-4.65 2.33,-7.29c0.24,-3.39 -0.55,-7.14 -2.12,-10.15c-4.01,-7.69 -12.36,-16.37 -17.81,-23.35c-10.53,-13.53 -20.63,-27.79 -31.93,-40.65c3.98,-2.09 7.94,-4.13 11.69,-6.61z" fill="rgb(235,242,250)" fill-rule="nonzero" id="svg_35" stroke-dashoffset="0" stroke-miterlimit="4" transform=" translate(-575.27, -518.79)"/>
   </g>
  </g>
 </g>
</svg>