<?xml version="1.0" encoding="utf-8" ?>
<svg xmlns="http://www.w3.org/2000/svg" xmlns:xlink="http://www.w3.org/1999/xlink" width="1024" height="1024">
	<path fill="#427AA1" d="M0 0L1024 0L1024 1024L0 1024L0 0Z"/>
	<path fill="#EBF2FA" d="M375.831 520.562C376.634 520.56 377.37 520.576 378.166 520.663C381.612 521.037 385.766 522.702 387.229 526.121C389.301 530.963 388.169 542.767 388.159 548.273L388.079 604.82C388.081 613.596 387.319 623.102 388.348 631.775C388.619 634.062 389.115 635.89 390.636 637.661C394.163 641.768 400.697 643.932 405.963 644.1C408.9 644.193 412.221 643.905 414.838 642.452C421.703 638.64 439.354 617.897 447.009 611.062C450.194 608.218 453.865 606.301 458.244 606.693C462.796 607.1 466.952 609.914 469.845 613.33C472.686 616.683 474.373 620.824 473.892 625.261C473.568 628.251 472.361 630.483 470.532 632.814C466.381 638.106 460.928 642.774 456.112 647.483L430.574 672.274C425.312 677.33 418.934 684.751 413.533 689.006C405.687 695.187 392.028 696.704 382.424 695.534C377.801 699.539 373.509 703.846 369.185 708.167Q356.171 721.565 342.965 734.776C338.127 739.599 333.326 744.894 327.941 749.092C307.923 734.419 289.189 714.326 274.003 694.781C278.972 688.372 285.359 682.73 291.102 676.995C297.919 670.186 304.556 663.196 311.406 656.421C315.454 652.417 321.032 648.103 324.115 643.358C327.913 637.513 330.537 627.938 333.033 621.275C341.073 599.815 348.59 578.05 356.099 556.395C359.205 547.438 361.803 536.508 365.93 528.108C368.108 523.674 371.357 522.074 375.831 520.562Z"/>
	<path fill="#EBF2FA" d="M502.001 418.509C503.51 418.457 505.744 418.422 507.002 419.392C511.287 422.691 515.133 429.456 518.439 433.84L545.075 469.262C555.961 483.514 568.031 497.28 578.125 512.059C579.567 514.17 580.231 515.82 580.547 518.355C579.692 520.585 578.409 522.693 576.994 524.612C562.587 544.143 546.822 562.883 531.878 582.019C525.94 589.622 510.326 612.223 504.214 616.838C502.981 616.649 501.392 616.501 500.426 615.642C497.182 612.757 494.361 608.182 491.618 604.768C482.641 593.593 473.909 582.258 465.078 570.97L440.339 539.457C436.072 534.038 431.193 528.623 427.403 522.874C426.645 521.723 425.813 519.618 425.999 518.22C426.193 516.768 427.834 514.618 428.7 513.405C441.574 495.38 455.653 478.201 469.084 460.592L489.172 434.157C492.456 429.853 495.603 425.266 499.121 421.156C499.971 420.163 500.973 419.311 502.001 418.509Z"/>
	<path fill="#EBF2FA" d="M672.376 579.905C673.781 581.047 689.147 619.102 690.967 623.77C692.964 628.891 694.457 635.102 697.29 639.779C700.433 644.968 706.436 649.168 710.684 653.499C723.926 667.001 737.769 680.295 750.259 694.476C746.582 700.204 741.965 705.176 737.444 710.236C724.348 724.895 710.441 738.032 694.842 750.016C683.247 738.903 672.098 727.233 660.928 715.691C653.38 708.015 646.786 700.794 637.274 695.538C630.955 695.768 625.03 695.212 619.355 692.198C613.302 688.984 608.244 682.364 603.473 677.536L587.675 661.797C582.98 657.03 578.399 651.96 573.279 647.652L572.609 647.094Q585.339 637.939 598.398 629.26C603.185 634.412 607.73 642.694 614.388 645.434C618.313 647.049 622.948 646.23 626.663 644.447C633.465 641.183 646.832 632.973 649.225 625.645C651.661 618.187 643.983 607.785 640.737 601.119C651.065 593.731 662.205 587.483 672.376 579.905Z"/>
	<path fill="#EBF2FA" d="M770.792 532.711C784.853 532.203 799.005 532.597 813.07 532.903C811.775 582.798 789.945 641.056 760.09 680.816L754.534 675.42L733.7 654.429C719.418 639.838 708.427 627.092 707.017 605.622C705.843 587.728 711.12 569.65 723.033 556.075C735.543 541.819 752.013 533.972 770.792 532.711Z"/>
	<path fill="#EBF2FA" d="M758.955 342.886C764.931 349.03 769.784 358.7 774.046 366.141C796.25 404.913 810.167 446.684 812.865 491.44C797.576 491.487 776.376 492.861 761.621 490.271C749.312 486.967 738.638 482.633 729.278 473.71C715.867 460.926 706.967 444.132 706.611 425.38C706.335 410.844 710.99 394.925 720.024 383.406C723.981 378.361 728.885 373.859 733.315 369.218L758.955 342.886Z"/>
	<path fill="#EBF2FA" d="M596.442 706.703C599.743 706.312 603.237 706.434 606.54 706.743C633.142 709.225 644.853 722.351 662.239 740.182C668.61 746.715 675.395 753.116 681.187 760.167C656.947 776.225 633.597 788.342 606.091 798.031C582.414 805.577 558.95 810.336 534.159 812.285L533.971 786.766C533.837 765.467 535.002 748.732 549.18 731.43C561.202 716.757 577.738 708.622 596.442 706.703Z"/>
	<path fill="#EBF2FA" d="M487.795 212.753C488.488 212.704 488.083 212.648 488.918 213.245C489.396 224.259 489.299 235.469 489.231 246.496C489.108 266.423 482.932 283.65 468.539 297.758Q467.342 298.951 466.087 300.082Q464.832 301.213 463.522 302.28Q462.212 303.346 460.85 304.346Q459.488 305.346 458.077 306.275Q456.667 307.205 455.211 308.063Q453.756 308.921 452.259 309.705Q450.762 310.488 449.228 311.196Q447.694 311.904 446.126 312.533Q444.558 313.163 442.961 313.713Q441.363 314.263 439.74 314.732Q438.117 315.201 436.472 315.589Q434.828 315.976 433.166 316.28Q431.504 316.584 429.829 316.804Q428.154 317.024 426.47 317.16Q424.786 317.296 423.097 317.347Q421.408 317.398 419.719 317.364C408.161 317.134 391.218 313.098 381.787 306.295C376.778 302.682 372.505 297.435 368.251 292.973C359.137 283.408 349.726 274.138 340.524 264.659C353.478 256.28 366.65 248.152 380.505 241.331Q386.795 238.299 393.22 235.568Q399.646 232.836 406.193 230.411Q412.741 227.986 419.395 225.872Q426.05 223.759 432.797 221.961Q439.544 220.164 446.368 218.688Q453.192 217.211 460.078 216.058Q466.965 214.905 473.898 214.078Q480.831 213.252 487.795 212.753Z"/>
	<path fill="#EBF2FA" d="M693.526 273.028C698.154 276.002 702.504 280.043 706.681 283.624C723.047 297.656 738.275 312.836 750.977 330.291C736.012 344.884 721.615 360.073 706.903 374.922C700.333 381.552 693.801 389.478 686.139 394.82C681.471 398.076 676.224 399.925 670.761 401.358C658.326 403.8 646.327 401.938 635.584 395.037C625.274 388.414 617.842 378.563 615.292 366.51C612.224 352.011 615.737 337.57 623.7 325.285C629.731 324.686 636.349 324.423 641.882 321.709C651.108 317.182 684.594 282.399 693.526 273.028Z"/>
	<path fill="#EBF2FA" d="M412.432 707.185C415.625 706.777 419.082 706.777 422.3 706.849C441.195 707.272 458.047 715.015 471.048 728.644C487.519 745.911 489.436 763.818 489.407 786.567Q489.43 799.612 489.218 812.655C469.411 810.189 450.047 807.325 430.787 801.886C424.885 800.533 419.038 798.227 413.345 796.189C387.763 787.032 364.666 774.824 342.051 759.811L369.909 731.8C374.868 726.784 380.161 720.25 386.025 716.355C393.79 711.198 403.281 708.447 412.432 707.185Z"/>
	<path fill="#EBF2FA" d="M211.953 533.577Q217.784 533.493 223.616 533.504C252.602 533.409 274.488 530.444 296.85 552.872Q298.024 554.045 299.139 555.275Q300.253 556.505 301.305 557.789Q302.357 559.073 303.345 560.407Q304.332 561.742 305.252 563.124Q306.172 564.505 307.022 565.931Q307.872 567.356 308.651 568.822Q309.43 570.288 310.135 571.791Q310.84 573.294 311.469 574.829Q312.099 576.365 312.652 577.93Q313.204 579.496 313.679 581.086Q314.153 582.677 314.549 584.289Q314.944 585.901 315.258 587.531Q315.573 589.161 315.807 590.804Q316.04 592.447 316.192 594.1Q316.344 595.753 316.414 597.412Q316.484 599.07 316.471 600.73C316.35 624.992 306.611 638.3 290.176 654.646Q277.041 667.577 264.262 680.859C232.578 635.805 216.224 588.397 211.953 533.577Z"/>
	<path fill="#EBF2FA" d="M263.537 342.49C270.475 348.589 276.689 355.885 282.985 362.638C297.22 377.907 309.309 388.315 314.036 409.768C318.006 427.787 315.421 445.145 305.342 460.687C295.548 475.79 281.41 485.544 263.879 489.311C246.778 491.638 228.737 490.502 211.485 490.458C212.707 481.062 213.282 471.632 214.87 462.274C222.317 418.4 239.467 379.687 263.537 342.49Z"/>
	<path fill="#EBF2FA" d="M534.627 212.369C588.655 218.137 638.095 232.793 682.61 265.011C674.954 270.673 663.96 283.03 656.493 290.33L646.602 300.289C635.393 311.556 618.519 317.129 602.758 317.094C584.106 317.052 566.851 309.43 553.823 296.145C530.1 271.954 534.367 243.165 534.627 212.369Z"/>
	<path fill="#EBF2FA" d="M328.635 273.867C331.39 274.986 335.252 280.079 337.482 282.319C344.757 289.631 370.949 317.508 378.225 320.92C384.034 323.644 390.33 324.132 396.631 324.644C398.584 325.965 400.055 327.36 401.503 329.226C408.401 338.117 410.93 351.019 409.552 362.023C408.018 374.278 401.145 385.552 391.404 393.051C380.917 401.125 368.471 403.134 355.584 401.511Q353.089 401.088 350.658 400.383Q348.227 399.679 345.892 398.703Q343.556 397.727 341.347 396.491Q339.138 395.256 337.084 393.778C330.385 389.004 324.809 382.358 319.054 376.514L291.169 348.173C285.237 342.098 279.459 335.654 273.085 330.043C288.941 308.878 308.522 290.885 328.635 273.867Z"/>
	<path fill="#EBF2FA" d="M632.777 467.935L633.854 468.288Q650.079 498.163 665.741 528.337C671.014 538.408 676.91 548.257 681.644 558.591C666.109 569.165 650.006 578.928 634.322 589.287C609.17 605.899 584.255 623.03 558.762 639.107C557.957 639.416 556.983 640.028 556.129 639.775C552.851 638.803 549.243 631.712 547.416 628.905C559.074 622.098 570.269 614.382 581.683 607.164L640.794 570.528C648.672 565.699 654.934 561.114 657.151 551.514C658.242 546.787 658.18 541.961 656.814 537.301C654.568 529.638 649.447 522.423 645.553 515.515Q633.581 493.926 620.616 472.918C624.426 470.931 628.776 469.533 632.777 467.935Z"/>
	<path fill="#EBF2FA" d="M591.489 446.995C591.606 447.114 591.74 447.22 591.841 447.353C594.828 451.25 597.599 458.076 600.117 462.584L623.493 504.218C629.608 514.928 639.229 527.907 644.027 538.498C645.354 541.429 646.023 544.094 645.278 547.289C644.382 551.134 641.827 554.037 638.847 556.476C634.999 559.625 630.29 561.999 626.049 564.596Q611.87 573.315 597.516 581.744C579.56 592.432 562.104 603.933 544.084 614.568C542.293 615.611 540.434 616.562 538.614 617.555C546.622 609.169 555.628 601.798 564.395 594.233C573.86 586.066 583.204 577.763 592.851 569.81C602.668 561.718 613.425 553.704 621.964 544.226C624.451 541.465 626.292 538.583 627.293 534.962Q627.485 534.266 627.616 533.557Q627.747 532.847 627.817 532.128Q627.887 531.41 627.895 530.689Q627.903 529.967 627.849 529.247Q627.794 528.528 627.679 527.815Q627.563 527.103 627.386 526.403Q627.21 525.703 626.974 525.021Q626.738 524.339 626.444 523.68C623.627 517.185 618.282 511.367 614.322 505.497C602.667 488.216 590.265 471.093 579.802 453.065Q585.622 449.986 591.489 446.995Z"/>
	<path fill="#EBF2FA" d="M553.922 437.423C557.111 440.467 571.543 465.047 575.186 470.657Q587.299 489.323 599.794 507.736C604.593 514.896 611.806 522.55 614.447 530.725C614.21 533.239 612.491 535.454 610.842 537.263C604.93 543.75 597.167 549.345 590.453 555.012L542.545 594.738C540.477 596.687 538.34 598.421 536.09 600.149C539.099 594.307 543.742 589.064 547.692 583.832L575.84 547.249C581.224 540.292 587.524 533.171 591.758 525.467C593.022 523.167 593.901 520.817 594.088 518.183C594.329 514.795 593.537 511.041 591.968 508.027C587.963 500.337 579.611 491.661 574.165 484.675C563.626 471.154 553.533 456.893 542.23 444.026C546.21 441.942 550.166 439.898 553.922 437.423Z"/>
</svg>
